<svg xmlns="http://www.w3.org/2000/svg" viewBox="0 0 1440 960" preserveAspectRatio="xMidYMid slice">
  <defs>
    <linearGradient id="g1" x1="0" y1="0" x2="0" y2="1">
      <stop offset="0%" stop-color="#a8edea"/>
      <stop offset="100%" stop-color="#fed6e3"/>
    </linearGradient>
    <linearGradient id="g2" x1="0" y1="0" x2="1" y2="1">
      <stop offset="0%" stop-color="#c3fed6" stop-opacity="0.8"/>
      <stop offset="100%" stop-color="#a0c4ff" stop-opacity="0.8"/>
    </linearGradient>
    <filter id="blur"><feGaussianBlur stdDeviation="60"/></filter>
  </defs>
  <rect width="1440" height="960" fill="url(#g1)"/>
  <g filter="url(#blur)">
    <circle cx="300" cy="200" r="220" fill="url(#g2)"/>
    <circle cx="1100" cy="300" r="260" fill="url(#g2)"/>
    <circle cx="700" cy="700" r="320" fill="url(#g2)"/>
  </g>
  <g opacity="0.6">
    <path d="M0 740 C 200 700, 400 780, 600 760 S 1000 700, 1440 760 L 1440 960 L 0 960 Z" fill="#bde0fe"/>
    <path d="M0 800 C 240 760, 420 860, 700 840 S 1100 780, 1440 840 L 1440 960 L 0 960 Z" fill="#caffbf"/>
    <path d="M0 860 C 280 820, 520 900, 900 880 S 1200 860, 1440 900 L 1440 960 L 0 960 Z" fill="#ffd6a5"/>
  </g>
</svg>
